<?xml version="1.0" encoding="UTF-8" standalone="no"?>
<!-- Created with Inkscape (http://www.inkscape.org/) -->

<svg
   width="714.60925"
   height="191.96909"
   viewBox="0 0 714.60926 191.96909"
   version="1.1"
   id="svg1"
   inkscape:version="1.3 (0e150ed6c4, 2023-07-21)"
   sodipodi:docname="Gracker-icon.svg"
   inkscape:export-filename="Gracker icon.svg"
   inkscape:export-xdpi="96"
   inkscape:export-ydpi="96"
   xmlns:inkscape="http://www.inkscape.org/namespaces/inkscape"
   xmlns:sodipodi="http://sodipodi.sourceforge.net/DTD/sodipodi-0.dtd"
   xmlns="http://www.w3.org/2000/svg"
   xmlns:svg="http://www.w3.org/2000/svg">
  <sodipodi:namedview
     id="namedview1"
     pagecolor="#3d3d3d"
     bordercolor="#000000"
     borderopacity="1"
     inkscape:showpageshadow="0"
     inkscape:pageopacity="0"
     inkscape:pagecheckerboard="1"
     inkscape:deskcolor="#4e4e4e"
     inkscape:document-units="px"
     showborder="false"
     inkscape:zoom="1"
     inkscape:cx="278"
     inkscape:cy="260"
     inkscape:window-width="1260"
     inkscape:window-height="642"
     inkscape:window-x="4"
     inkscape:window-y="40"
     inkscape:window-maximized="0"
     inkscape:current-layer="layer1"
     showgrid="false"
     inkscape:export-bgcolor="#ffffff00">
    <inkscape:page
       x="0"
       y="0"
       width="714.60925"
       height="191.96909"
       id="page1"
       margin="0"
       bleed="0" />
    <inkscape:page
       x="3.693554e-07"
       y="249.97296"
       width="150.05008"
       height="152.02319"
       id="page2"
       margin="0"
       bleed="0"
       inkscape:export-filename="simple-icon.svg"
       inkscape:export-xdpi="96"
       inkscape:export-ydpi="96" />
  </sodipodi:namedview>
  <defs
     id="defs1" />
  <g
     inkscape:label="Layer 1"
     inkscape:groupmode="layer"
     id="layer1"
     transform="translate(-45.980607,-24.223568)">
    <g
       id="g1">
      <path
         d="m 119.94485,196.14499 c -4.13301,-0.38447 -7.97767,-3.07573 -10.38058,-7.20873 l -0.48059,-0.86505 -0.48058,0.38446 c -1.34562,1.34563 -3.84465,2.78738 -5.67086,3.36408 -7.400972,2.30679 -14.513582,-2.40291 -16.147562,-10.76504 l -0.19224,-1.1534 -0.86505,0.38447 c -8.26601,3.26796 -16.33979,-1.1534 -17.78153,-9.61165 -0.19223,-1.53786 -0.0961,-4.51747 0.28835,-5.8631 v -0.28835 l -0.67281,0.0961 c -0.86505,0 -2.78738,-0.0961 -3.94078,-0.38446 -8.93884,-1.92233 -12.687368,-11.14951 -7.88156,-19.51164 0.57671,-0.96117 0.57671,-0.96117 0.19225,-1.05728 -0.19225,0 -0.76894,-0.19223 -1.34564,-0.48058 -10.092217,-4.03689 -11.533972,-15.57087 -2.883493,-22.58737 l 0.384464,-0.38447 -0.768925,-0.5767 c -8.650482,-6.82425 -6.439799,-19.03104 4.133004,-22.683468 0.38447,-0.0961 0.76893,-0.19222 0.76893,-0.28835 0,0 -0.19223,-0.28835 -0.38446,-0.5767 -5.959217,-9.70776 0.0961,-20.18444 11.63008,-20.18444 h 0.67282 v -0.28836 c -0.86505,-3.74853 -0.48059,-7.30484 1.05728,-9.9961 3.07573,-5.67088 9.70776,-7.78543 16.43591,-5.38252 0.48059,0.19224 0.86505,0.28836 0.86505,0.28836 0,0 0,-0.19224 0.0961,-0.38447 1.82622,-11.53397 12.87961,-15.76309 21.722322,-8.36213 l 0.67282,0.5767 0.38446,-0.67282 c 5.47863,-9.89999 17.20483,-9.99611 23.06794,-0.19223 l 0.48059,0.86505 0.48057,-0.48058 c 8.07378,-7.49709 19.70387,-3.55631 21.81843,7.49708 l 0.19223,1.1534 0.76894,-0.28836 c 8.36213,-3.26796 16.33979,0.96117 17.78153,9.41942 0.28835,1.53786 0.19223,4.61358 -0.19223,6.05533 0,0.19223 0,0.19223 0.76894,0.0961 0.86505,0 2.69125,0.0961 3.84465,0.38447 8.84271,1.92232 12.59124,11.05339 7.88154,19.41551 -0.28834,0.5767 -0.48057,0.96117 -0.48057,0.96117 0,0.0961 0.38446,0.19222 0.76893,0.28835 10.66893,3.556308 12.68736,15.763078 3.74854,22.971818 l -0.38448,0.38446 0.76894,0.5767 c 8.65049,6.82427 6.4398,19.03106 -4.03688,22.68348 -0.48059,0.0961 -0.86505,0.19224 -0.86505,0.28835 0,0 0.19223,0.28835 0.38446,0.5767 2.49903,4.03689 2.97961,8.55436 1.44175,12.3029 -2.01846,4.80582 -7.11262,7.88155 -13.07183,7.88155 h -0.67282 v 0.28835 c 0.67282,2.97961 0.57669,5.8631 -0.28835,8.1699 -2.40291,6.82426 -9.61164,9.89999 -17.10873,7.20873 -1.05728,-0.38447 -0.96116,-0.38447 -1.05728,0.67281 -1.8262,10.95728 -13.07183,14.99417 -21.72231,7.78543 l -0.67282,-0.5767 -0.38446,0.67282 c -2.78737,5.19029 -7.6893,7.97766 -12.68736,7.40096 z m 2.01843,-9.61165 c 2.11457,-0.67281 3.36408,-3.65242 3.94078,-8.93882 0.0961,-1.05729 0.38446,-1.82621 0.86505,-2.59515 0.19223,-0.19223 0.48058,-0.57669 0.67281,-0.86504 2.30679,-3.4602 7.0165,-2.59515 8.65048,1.63398 2.8835,7.49707 8.93882,9.61164 9.9,3.46018 0.28835,-1.53786 -0.0961,-4.51747 -0.67282,-6.34368 -0.67282,-1.92233 0,-4.80582 1.34563,-6.24757 1.92233,-2.11456 4.99806,-2.01844 6.92038,0.0961 3.55631,3.74855 6.24757,5.19029 8.84272,4.90194 2.59514,-0.28835 3.17183,-3.26796 1.24951,-7.20873 -0.48059,-1.05728 -0.86505,-1.63398 -2.11456,-3.55631 -0.67282,-0.86505 -0.96117,-2.40291 -0.96117,-4.22912 0,-2.11456 1.73009,-4.03689 4.0369,-4.42136 1.15338,-0.19223 1.73009,-0.0961 3.74853,0.86505 3.26796,1.63398 5.95923,2.21068 8.07378,1.7301 4.42135,-1.24952 2.97961,-5.86311 -3.07573,-9.99611 -2.49902,-1.63398 -3.55629,-5.09417 -2.40291,-7.40097 0.96117,-2.01845 2.78738,-2.8835 5.57475,-2.49903 3.26796,0.48058 6.05534,0.0961 7.97767,-0.86505 4.32523,-2.49902 1.44175,-6.82426 -5.67086,-8.55436 -3.36409,-0.86505 -5.67088,-4.03689 -4.99806,-6.72815 0.5767,-2.11456 1.8262,-3.17184 4.51747,-3.74854 4.90193,-1.05728 8.07377,-3.46019 8.07377,-6.15145 0,-2.59514 -4.03688,-4.03689 -9.51551,-3.46019 -1.63399,0.19223 -3.74855,-0.48058 -5.09418,-1.63398 -2.69125,-2.3068 -2.11456,-5.959218 1.24951,-8.073778 3.26796,-2.01845 5.28641,-4.42136 5.67087,-6.82427 0.67282,-3.74854 -3.84465,-4.7097 -9.80386,-1.92233 -3.4602,1.63398 -7.01651,0.86505 -8.36214,-1.82621 -0.96116,-2.01844 -0.67282,-3.5563 1.1534,-5.95922 4.7097,-6.15145 3.65242,-12.11067 -1.82622,-10.18834 -1.63397,0.5767 -3.07571,1.53787 -5.2864,3.55631 -1.44174,1.44175 -1.73009,1.63398 -3.26796,2.11456 -2.21068,0.5767 -3.84465,0.28835 -5.28639,-1.15339 -1.44176,-1.44175 -1.7301,-2.97961 -0.96117,-5.38252 2.69126,-8.1699 -0.96118,-13.64854 -5.86311,-8.7466 -1.15339,1.24951 -2.01844,2.59514 -3.26796,5.19029 -1.24951,2.88349 -4.90193,4.42135 -7.40095,3.26796 -1.92233,-0.96117 -2.59515,-2.3068 -2.78738,-5.19029 -0.19225,-3.74854 -1.1534,-6.34369 -2.78737,-7.88155 -3.07573,-2.88349 -6.24759,0.5767 -6.82428,7.30485 -0.19223,1.7301 -0.38446,2.59515 -1.05728,3.46019 -0.0961,0.0961 -0.38446,0.48059 -0.57669,0.76893 -2.30681,3.36408 -7.01651,2.49903 -8.55438,-1.53786 -2.49902,-6.63203 -8.169892,-9.41941 -9.707762,-4.90194 -0.57669,1.92233 -0.48057,5.09418 0.38448,7.68932 0.67281,1.92233 0,4.80582 -1.34563,6.24756 -1.92233,2.11457 -4.99806,2.01845 -6.92038,-0.0961 -2.69127,-2.88349 -4.70971,-4.22912 -6.72816,-4.80582 -4.22912,-0.96116 -5.76698,2.21068 -3.36407,7.20873 0.48057,0.96117 0.86505,1.53787 2.11456,3.46019 0.67282,0.86505 0.96116,2.40291 0.96116,4.22913 0,2.11456 -1.7301,4.03689 -4.03689,4.42135 -1.15338,0.19223 -1.73009,0.0961 -3.74853,-0.96116 -10.4767,-5.19029 -14.80194,1.73009 -5.19029,8.16989 2.59515,1.7301 3.84466,5.094168 2.69125,7.400968 -0.96115,2.21068 -2.78737,3.07572 -5.67087,2.69126 -3.07571,-0.38447 -5.76698,-0.19223 -7.59318,0.76893 -4.6136,2.21068 -2.21069,6.53592 4.61358,8.45825 1.82622,0.48058 2.01845,0.5767 2.59514,0.96116 4.80583,3.07572 4.03689,8.45824 -1.34563,9.70776 -3.65243,0.76893 -5.95922,2.01844 -7.30485,3.84466 -2.59515,3.46019 0.57671,6.05533 7.01651,5.76698 3.65242,-0.0961 3.46019,-0.0961 5.8631,1.05728 3.46019,1.63399 3.36407,6.34369 -0.0961,8.45825 -3.84465,2.3068 -6.24756,5.47864 -6.05533,7.97767 0.28835,2.9796 4.61359,3.46019 9.89999,0.96116 1.92233,-0.86505 2.9796,-1.05728 5.09418,-0.5767 3.65242,0.67282 4.99804,4.80582 2.59514,7.78543 -5.09418,6.34369 -4.32524,12.78349 1.34562,10.76504 1.63399,-0.57669 3.07573,-1.53786 5.28641,-3.5563 0.86505,-0.96117 1.44174,-1.44175 1.8262,-1.53787 5.19029,-2.40291 9.3233,0.86505 7.68933,5.95922 -2.69127,8.1699 0.96116,13.55242 5.766982,8.74659 1.05728,-1.05727 1.92233,-2.30679 2.8835,-4.32523 2.11456,-4.42136 6.34367,-5.8631 9.13105,-3.17184 1.05728,0.96116 1.44176,1.82621 1.53786,4.22912 0.28836,5.8631 2.8835,9.80387 5.76699,8.74659 z m -16.14756,-30.37279 c -5.57475,-0.57669 -8.362122,-7.30485 -4.7097,-11.63009 3.26796,-3.94077 9.41941,-3.26795 11.82232,1.24952 2.59514,4.99805 -1.44174,10.86115 -7.11262,10.38057 z m 28.83494,0 c -5.57476,-0.57669 -8.36214,-7.30485 -4.70972,-11.63009 3.26797,-3.94077 9.41942,-3.26795 11.82234,1.24952 2.59514,4.99805 -1.44176,10.86115 -7.11262,10.38057 z M 91.398258,127.32562 c -5.57475,-0.57669 -8.36212,-7.30485 -4.7097,-11.63008 3.26796,-3.94078 9.4194,-3.26796 11.82232,1.24951 2.595142,4.99805 -1.44174,10.86115 -7.11262,10.38057 z m 28.834922,0 c -5.57475,-0.57669 -8.36212,-7.30485 -4.7097,-11.63008 3.26796,-3.94078 9.41942,-3.26796 11.82232,1.24951 2.59514,4.99805 -1.44174,10.86115 -7.11262,10.38057 z m 28.83494,0 c -5.57475,-0.57669 -8.36212,-7.30485 -4.7097,-11.63008 3.26794,-3.94078 9.4194,-3.26796 11.82232,1.24951 2.59514,4.99805 -1.44176,10.86115 -7.11262,10.38057 z m -43.2524,-28.834918 c -4.90193,-0.48059 -7.881542,-5.95922 -5.57475,-10.38058 2.69127,-5.19029 9.99612,-5.19029 12.68737,0 2.59514,4.99806 -1.44174,10.86116 -7.11262,10.38058 z m 28.83494,0 c -4.90195,-0.48059 -7.88155,-5.95922 -5.57476,-10.38058 2.69126,-5.19029 9.99611,-5.19029 12.68738,0 2.59514,4.99806 -1.44176,10.86116 -7.11262,10.38058 z"
         id="path2"
         style="fill:#0570eb;fill-opacity:1;stroke-width:0.999999" />
      <text
         xml:space="preserve"
         style="font-style:italic;font-variant:normal;font-weight:normal;font-stretch:normal;font-size:109.648px;font-family:'Fira Code Two iScript';-inkscape-font-specification:'Fira Code Two iScript Italic';fill:#0570eb;fill-opacity:1;stroke:none;stroke-width:5;stroke-linecap:round;stroke-linejoin:round;stroke-miterlimit:20;stroke-dasharray:none;paint-order:stroke fill markers"
         x="252.26164"
         y="159.98293"
         id="text42"><tspan
           sodipodi:role="line"
           id="tspan42"
           x="252.26164"
           y="159.98293"
           style="font-style:normal;font-variant:normal;font-weight:800;font-stretch:normal;font-family:Lato;-inkscape-font-specification:'Lato Ultra-Bold';fill:#0570eb;fill-opacity:1;stroke-width:5">GRACKER</tspan></text>
      <path
         style="fill:none;stroke:#0570eb;stroke-width:6;stroke-linecap:round;stroke-linejoin:round;stroke-miterlimit:20;stroke-dasharray:none;stroke-opacity:1;paint-order:stroke fill markers"
         d="M 223.11846,27.223568 V 213.19266"
         id="path3" />
    </g>
    <path
       d="m 119.94485,426.14499 c -4.13301,-0.38447 -7.97767,-3.07573 -10.38058,-7.20873 l -0.48059,-0.86505 -0.48058,0.38446 c -1.34562,1.34563 -3.84465,2.78738 -5.67086,3.36408 -7.400972,2.30679 -14.513582,-2.40291 -16.147562,-10.76504 l -0.19224,-1.1534 -0.86505,0.38447 c -8.26601,3.26796 -16.33979,-1.1534 -17.78153,-9.61165 -0.19223,-1.53786 -0.0961,-4.51747 0.28835,-5.8631 v -0.28835 l -0.67281,0.0961 c -0.86505,0 -2.78738,-0.0961 -3.94078,-0.38446 -8.93884,-1.92233 -12.687368,-11.14951 -7.88156,-19.51164 0.57671,-0.96117 0.57671,-0.96117 0.19225,-1.05728 -0.19225,0 -0.76894,-0.19223 -1.34564,-0.48058 -10.092217,-4.03689 -11.533972,-15.57087 -2.883493,-22.58737 l 0.384464,-0.38447 -0.768925,-0.5767 c -8.650482,-6.82425 -6.439799,-19.03104 4.133004,-22.68347 0.38447,-0.0961 0.76893,-0.19222 0.76893,-0.28835 0,0 -0.19223,-0.28835 -0.38446,-0.5767 -5.959217,-9.70776 0.0961,-20.18444 11.63008,-20.18444 h 0.67282 v -0.28836 c -0.86505,-3.74853 -0.48059,-7.30484 1.05728,-9.9961 3.07573,-5.67088 9.70776,-7.78543 16.43591,-5.38252 0.48059,0.19224 0.86505,0.28836 0.86505,0.28836 0,0 0,-0.19224 0.0961,-0.38447 1.82622,-11.53397 12.879612,-15.76309 21.722322,-8.36213 l 0.67282,0.5767 0.38446,-0.67282 c 5.47863,-9.89999 17.20483,-9.99611 23.06794,-0.19223 l 0.48059,0.86505 0.48057,-0.48058 c 8.07378,-7.49709 19.70387,-3.55631 21.81843,7.49708 l 0.19223,1.1534 0.76894,-0.28836 c 8.36213,-3.26796 16.33979,0.96117 17.78153,9.41942 0.28835,1.53786 0.19223,4.61358 -0.19223,6.05533 0,0.19223 0,0.19223 0.76894,0.0961 0.86505,0 2.69125,0.0961 3.84465,0.38447 8.84271,1.92232 12.59124,11.05339 7.88154,19.41551 -0.28834,0.5767 -0.48057,0.96117 -0.48057,0.96117 0,0.0961 0.38446,0.19222 0.76893,0.28835 10.66893,3.55631 12.68736,15.76308 3.74854,22.97182 l -0.38448,0.38446 0.76894,0.5767 c 8.65049,6.82427 6.4398,19.03106 -4.03688,22.68348 -0.48059,0.0961 -0.86505,0.19224 -0.86505,0.28835 0,0 0.19223,0.28835 0.38446,0.5767 2.49903,4.03689 2.97961,8.55436 1.44175,12.3029 -2.01846,4.80582 -7.11262,7.88155 -13.07183,7.88155 h -0.67282 v 0.28835 c 0.67282,2.97961 0.57669,5.8631 -0.28835,8.1699 -2.40291,6.82426 -9.61164,9.89999 -17.10873,7.20873 -1.05728,-0.38447 -0.96116,-0.38447 -1.05728,0.67281 -1.8262,10.95728 -13.07183,14.99417 -21.72231,7.78543 l -0.67282,-0.5767 -0.38446,0.67282 c -2.78737,5.19029 -7.6893,7.97766 -12.68736,7.40096 z m 2.01843,-9.61165 c 2.11457,-0.67281 3.36408,-3.65242 3.94078,-8.93882 0.0961,-1.05729 0.38446,-1.82621 0.86505,-2.59515 0.19223,-0.19223 0.48058,-0.57669 0.67281,-0.86504 2.30679,-3.4602 7.0165,-2.59515 8.65048,1.63398 2.8835,7.49707 8.93882,9.61164 9.9,3.46018 0.28835,-1.53786 -0.0961,-4.51747 -0.67282,-6.34368 -0.67282,-1.92233 0,-4.80582 1.34563,-6.24757 1.92233,-2.11456 4.99806,-2.01844 6.92038,0.0961 3.55631,3.74855 6.24757,5.19029 8.84272,4.90194 2.59514,-0.28835 3.17183,-3.26796 1.24951,-7.20873 -0.48059,-1.05728 -0.86505,-1.63398 -2.11456,-3.55631 -0.67282,-0.86505 -0.96117,-2.40291 -0.96117,-4.22912 0,-2.11456 1.73009,-4.03689 4.0369,-4.42136 1.15338,-0.19223 1.73009,-0.0961 3.74853,0.86505 3.26796,1.63398 5.95923,2.21068 8.07378,1.7301 4.42135,-1.24952 2.97961,-5.86311 -3.07573,-9.99611 -2.49902,-1.63398 -3.55629,-5.09417 -2.40291,-7.40097 0.96117,-2.01845 2.78738,-2.8835 5.57475,-2.49903 3.26796,0.48058 6.05534,0.0961 7.97767,-0.86505 4.32523,-2.49902 1.44175,-6.82426 -5.67086,-8.55436 -3.36409,-0.86505 -5.67088,-4.03689 -4.99806,-6.72815 0.5767,-2.11456 1.8262,-3.17184 4.51747,-3.74854 4.90193,-1.05728 8.07377,-3.46019 8.07377,-6.15145 0,-2.59514 -4.03688,-4.03689 -9.51551,-3.46019 -1.63399,0.19223 -3.74855,-0.48058 -5.09418,-1.63398 -2.69125,-2.3068 -2.11456,-5.95922 1.24951,-8.07378 3.26796,-2.01845 5.28641,-4.42136 5.67087,-6.82427 0.67282,-3.74854 -3.84465,-4.7097 -9.80386,-1.92233 -3.4602,1.63398 -7.01651,0.86505 -8.36214,-1.82621 -0.96116,-2.01844 -0.67282,-3.5563 1.1534,-5.95922 4.7097,-6.15145 3.65242,-12.11067 -1.82622,-10.18834 -1.63397,0.5767 -3.07571,1.53787 -5.2864,3.55631 -1.44174,1.44175 -1.73009,1.63398 -3.26796,2.11456 -2.21068,0.5767 -3.84465,0.28835 -5.28639,-1.15339 -1.44176,-1.44175 -1.7301,-2.97961 -0.96117,-5.38252 2.69126,-8.1699 -0.96118,-13.64854 -5.86311,-8.7466 -1.15339,1.24951 -2.01844,2.59514 -3.26796,5.19029 -1.24951,2.88349 -4.90193,4.42135 -7.40095,3.26796 -1.92233,-0.96117 -2.59515,-2.3068 -2.78738,-5.19029 -0.19225,-3.74854 -1.1534,-6.34369 -2.78737,-7.88155 -3.07573,-2.88349 -6.24759,0.5767 -6.82428,7.30485 -0.19223,1.7301 -0.38446,2.59515 -1.05728,3.46019 -0.0961,0.0961 -0.38446,0.48059 -0.57669,0.76893 -2.30681,3.36408 -7.01651,2.49903 -8.55438,-1.53786 -2.49902,-6.63203 -8.169892,-9.41941 -9.707762,-4.90194 -0.57669,1.92233 -0.48057,5.09418 0.38448,7.68932 0.67281,1.92233 0,4.80582 -1.34563,6.24756 -1.92233,2.11457 -4.99806,2.01845 -6.92038,-0.0961 -2.69127,-2.88349 -4.70971,-4.22912 -6.72816,-4.80582 -4.22912,-0.96116 -5.76698,2.21068 -3.36407,7.20873 0.48057,0.96117 0.86505,1.53787 2.11456,3.46019 0.67282,0.86505 0.96116,2.40291 0.96116,4.22913 0,2.11456 -1.7301,4.03689 -4.03689,4.42135 -1.15338,0.19223 -1.73009,0.0961 -3.74853,-0.96116 -10.4767,-5.19029 -14.80194,1.73009 -5.19029,8.16989 2.59515,1.7301 3.84466,5.09417 2.69125,7.40097 -0.96115,2.21068 -2.78737,3.07572 -5.67087,2.69126 -3.07571,-0.38447 -5.76698,-0.19223 -7.59318,0.76893 -4.6136,2.21068 -2.21069,6.53592 4.61358,8.45825 1.82622,0.48058 2.01845,0.5767 2.59514,0.96116 4.80583,3.07572 4.03689,8.45824 -1.34563,9.70776 -3.65243,0.76893 -5.95922,2.01844 -7.30485,3.84466 -2.59515,3.46019 0.57671,6.05533 7.01651,5.76698 3.65242,-0.0961 3.46019,-0.0961 5.8631,1.05728 3.46019,1.63399 3.36407,6.34369 -0.0961,8.45825 -3.84465,2.3068 -6.24756,5.47864 -6.05533,7.97767 0.28835,2.9796 4.61359,3.46019 9.89999,0.96116 1.92233,-0.86505 2.9796,-1.05728 5.09418,-0.5767 3.65242,0.67282 4.99804,4.80582 2.59514,7.78543 -5.09418,6.34369 -4.32524,12.78349 1.34562,10.76504 1.63399,-0.57669 3.07573,-1.53786 5.28641,-3.5563 0.86505,-0.96117 1.44174,-1.44175 1.8262,-1.53787 5.19029,-2.40291 9.323302,0.86505 7.68933,5.95922 -2.69127,8.1699 0.96116,13.55242 5.766982,8.74659 1.05728,-1.05727 1.92233,-2.30679 2.8835,-4.32523 2.11456,-4.42136 6.34367,-5.8631 9.13105,-3.17184 1.05728,0.96116 1.44176,1.82621 1.53786,4.22912 0.28836,5.8631 2.8835,9.80387 5.76699,8.74659 z m -16.14756,-30.37279 c -5.57475,-0.57669 -8.362122,-7.30485 -4.7097,-11.63009 3.26796,-3.94077 9.41941,-3.26795 11.82232,1.24952 2.59514,4.99805 -1.44174,10.86115 -7.11262,10.38057 z m 28.83494,0 c -5.57476,-0.57669 -8.36214,-7.30485 -4.70972,-11.63009 3.26797,-3.94077 9.41942,-3.26795 11.82234,1.24952 2.59514,4.99805 -1.44176,10.86115 -7.11262,10.38057 z M 91.398258,357.32562 c -5.57475,-0.57669 -8.36212,-7.30485 -4.7097,-11.63008 3.26796,-3.94078 9.4194,-3.26796 11.822322,1.24951 2.59514,4.99805 -1.441742,10.86115 -7.112622,10.38057 z m 28.834922,0 c -5.57475,-0.57669 -8.36212,-7.30485 -4.7097,-11.63008 3.26796,-3.94078 9.41942,-3.26796 11.82232,1.24951 2.59514,4.99805 -1.44174,10.86115 -7.11262,10.38057 z m 28.83494,0 c -5.57475,-0.57669 -8.36212,-7.30485 -4.7097,-11.63008 3.26794,-3.94078 9.4194,-3.26796 11.82232,1.24951 2.59514,4.99805 -1.44176,10.86115 -7.11262,10.38057 z m -43.2524,-28.83492 c -4.90193,-0.48059 -7.881542,-5.95922 -5.57475,-10.38058 2.69127,-5.19029 9.99612,-5.19029 12.68737,0 2.59514,4.99806 -1.44174,10.86116 -7.11262,10.38058 z m 28.83494,0 c -4.90195,-0.48059 -7.88155,-5.95922 -5.57476,-10.38058 2.69126,-5.19029 9.99611,-5.19029 12.68738,0 2.59514,4.99806 -1.44176,10.86116 -7.11262,10.38058 z"
       id="path1"
       style="fill:#0570eb;fill-opacity:1;stroke-width:0.999999" />
  </g>
</svg>
